{"title":"Gangster Squad 2013 Ts","uid":8082453,"size":973377403,"categoryP":"video","categoryS":"movies","magnet":"?xt=urn:btih:13c1ba93707189af163ae6231e00ef46511fd731&amp;dn=Gangster+Squad+2013+Ts&amp;tr=udp%3A%2F%2Ftracker.openbittorrent.com%3A80&amp;tr=udp%3A%2F%2Fopen.demonii.com%3A1337&amp;tr=udp%3A%2F%2Ftracker.coppersurfer.tk%3A6969&amp;tr=udp%3A%2F%2Fexodus.desync.com%3A6969","seeders":0,"leechers":1,"uploader":"Armani-1","files":3,"time":1359528014,"description":"IMDb : http://www.imdb.com/title/tt1321870\n\nLanguage : English\n\nScreens :  &lt;a href=&quot;\nhttp://www.piczend.com/image/1359524050_vlcsnap-2013-01-29-21h32m29s243.png&quot; rel=&quot;nofollow&quot; target=&quot;_NEW&quot;&gt;\nhttp://www.piczend.com/image/1359524050_vlcsnap-2013-01-29-21h32m29s243.png&lt;/a&gt; &lt;a href=&quot;\nhttp://www.piczend.com/image/1359524050_vlcsnap-2013-01-29-21h32m34s38.png&quot; rel=&quot;nofollow&quot; target=&quot;_NEW&quot;&gt;\nhttp://www.piczend.com/image/1359524050_vlcsnap-2013-01-29-21h32m34s38.png&lt;/a&gt; &lt;a href=&quot;\nhttp://www.piczend.com/image/1359524050_vlcsnap-2013-01-29-21h32m39s87.png&quot; rel=&quot;nofollow&quot; target=&quot;_NEW&quot;&gt;\nhttp://www.piczend.com/image/1359524050_vlcsnap-2013-01-29-21h32m39s87.png&lt;/a&gt; &lt;a href=&quot;\nhttp://www.piczend.com/image/1359524050_vlcsnap-2013-01-29-21h32m51s204.png&quot; rel=&quot;nofollow&quot; target=&quot;_NEW&quot;&gt;\nhttp://www.piczend.com/image/1359524050_vlcsnap-2013-01-29-21h32m51s204.png&lt;/a&gt; &lt;a href=&quot;\nhttp://www.piczend.com/image/1359524050_vlcsnap-2013-01-29-21h32m56s1.png&quot; rel=&quot;nofollow&quot; target=&quot;_NEW&quot;&gt;\nhttp://www.piczend.com/image/1359524050_vlcsnap-2013-01-29-21h32m56s1.png&lt;/a&gt;\n\n\nInfo:\nFormat : MPEG-4\nFormat profile : Base Media / Version 2\nCodec ID : mp42\nFile size : 928 MiB\nDuration : 1h 43mn\nOverall bit rate mode : Variable\nOverall bit rate : 1 253 Kbps\nEncoded date : UTC 2013-01-30 04:50:09\nTagged date : UTC 2013-01-30 05:14:07\nWriting application : HandBrake 0.9.8 2012071700\n\nVideo\nID : 1\nFormat : AVC\nFormat/Info : Advanced Video Codec\nFormat profile : &lt;a class=&quot;__cf_email__&quot; href=&quot;/cdn-cgi/l/email-protection&quot; data-cfemail=&quot;a9e4c8c0c7e9e59a8799&quot;&gt;[email&amp;#160;protected]&lt;/a&gt;&lt;script cf-hash='f9e31' type=&quot;text/javascript&quot;&gt;\n/* &lt;![CDATA[ */!function(){try{var t=&quot;currentScript&quot;in document?document.currentScript:function(){for(var t=document.getElementsByTagName(&quot;script&quot;),e=t.length;e--;)if(t[e].getAttribute(&quot;cf-hash&quot;))return t[e]}();if(t&amp;&amp;t.previousSibling){var e,r,n,i,c=t.previousSibling,a=c.getAttribute(&quot;data-cfemail&quot;);if(a){for(e=&quot;&quot;,r=parseInt(a.substr(0,2),16),n=2;a.length-n;n+=2)i=parseInt(a.substr(n,2),16)^r,e+=String.fromCharCode(i);e=document.createTextNode(e),c.parentNode.replaceChild(e,c)}}}catch(u){}}();/* ]]&gt; */&lt;/script&gt;\nFormat settings, CABAC : Yes\nFormat settings, ReFrames : 4 frames\nCodec ID : avc1\nCodec ID/Info : Advanced Video Coding\nDuration : 1h 43mn\nBit rate mode : Variable\nBit rate : 1 087 Kbps\nWidth : 720 pixels\nHeight : 340 pixels\nDisplay aspect ratio : 2.118\nFrame rate mode : Variable\nFrame rate : 29.970 fps\nMinimum frame rate : 29.970 fps\nMaximum frame rate : 90 000.000 fps\nColor space : YUV\nChroma subsampling : 4:2:0\nBit depth : 8 bits\nScan type : Progressive\nBits/(Pixel*Frame) : 0.148\nStream size : 805 MiB (87%)\nWriting library : x264 core 120\nEncoding settings : cabac=1 / ref=1 / deblock=1:0:0 / analyse=0x1:0x111 / me=hex / subme=2 / psy=1 / psy_rd=1.00:0.00 / mixed_ref=0 / me_range=16 / chroma_me=1 / trellis=0 / 8x8dct=0 / cqm=0 / deadzone=21,11 / fast_pskip=1 / chroma_qp_offset=0 / threads=6 / sliced_threads=0 / nr=0 / decimate=1 / interlaced=0 / bluray_compat=0 / constrained_intra=0 / bframes=3 / b_pyramid=2 / b_adapt=1 / b_bias=0 / direct=1 / weightb=1 / open_gop=0 / weightp=1 / keyint=300 / keyint_min=30 / scenecut=40 / intra_refresh=0 / rc_lookahead=10 / rc=crf / mbtree=1 / crf=20.0 / qcomp=0.60 / qpmin=3 / qpmax=69 / qpstep=4 / ip_ratio=1.40 / aq=1:1.00\nEncoded date : UTC 2013-01-30 04:50:09\nTagged date : UTC 2013-01-30 05:14:07\nColor primaries : BT.601 NTSC\nTransfer characteristics : BT.709\nMatrix coefficients : BT.601\n\nAudio\nID : 2\nFormat : AAC\nFormat/Info : Advanced Audio Codec\nFormat profile : LC\nCodec ID : 40\nDuration : 1h 43mn\nBit rate mode : Variable\nBit rate : 160 Kbps\nMaximum bit rate : 191 Kbps\nChannel(s) : 2 channels\nChannel positions : Front: L R\nSampling rate : 44.1 KHz\nCompression mode : Lossy\nDelay relative to video : 67ms\nStream size : 119 MiB (13%)\nEncoded date : UTC 2013-01-30 04:50:09\nTagged date : UTC 2013-01-30 05:14:07\n","torrent":{"xt":"urn:btih:13c1ba93707189af163ae6231e00ef46511fd731","amp;dn":"Gangster+Squad+2013+Ts","amp;tr":["udp%3A%2F%2Ftracker.openbittorrent.com%3A80","udp%3A%2F%2Fopen.demonii.com%3A1337","udp%3A%2F%2Ftracker.coppersurfer.tk%3A6969","udp%3A%2F%2Fexodus.desync.com%3A6969"],"infoHash":"13c1ba93707189af163ae6231e00ef46511fd731","infoHashBuffer":{"type":"Buffer","data":[19,193,186,147,112,113,137,175,22,58,230,35,30,0,239,70,81,31,215,49]},"announce":[],"urlList":[]}}